<?xml version="1.0" encoding="UTF-8" standalone="no" ?>
<!DOCTYPE svg PUBLIC "-//W3C//DTD SVG 1.1//EN" "http://www.w3.org/Graphics/SVG/1.1/DTD/svg11.dtd">
<svg xmlns="http://www.w3.org/2000/svg" xmlns:xlink="http://www.w3.org/1999/xlink" version="1.1" width="1080" height="1080" viewBox="0 0 1080 1080" xml:space="preserve">
<desc>Created with Fabric.js 5.2.4</desc>
<defs>
</defs>
<g transform="matrix(1 0 0 1 540 540)" id="5e9840ec-6540-4faa-bac4-4f661e941e90"  >
<rect style="stroke: none; stroke-width: 1; stroke-dasharray: none; stroke-linecap: butt; stroke-dashoffset: 0; stroke-linejoin: miter; stroke-miterlimit: 4; fill: rgb(255,255,255); fill-rule: nonzero; opacity: 1; visibility: hidden;" vector-effect="non-scaling-stroke"  x="-540" y="-540" rx="0" ry="0" width="1080" height="1080" />
</g>
<g transform="matrix(1 0 0 1 540 540)" id="a7c39aa2-099e-4476-aa4e-37fc35677d35"  >
</g>
<g transform="matrix(2.58 0 0 2.58 540 540)"  >
<g style="" vector-effect="non-scaling-stroke"   >
		<g transform="matrix(1 0 0 1 0 0)"  >
<rect style="stroke: none; stroke-width: 1; stroke-dasharray: none; stroke-linecap: butt; stroke-dashoffset: 0; stroke-linejoin: miter; stroke-miterlimit: 4; fill: rgb(255,255,255); fill-rule: nonzero; opacity: 1; visibility: hidden;" vector-effect="non-scaling-stroke"  x="-540" y="-540" rx="0" ry="0" width="1080" height="1080" />
</g>
		<g transform="matrix(0.13 0 0 -0.13 -15.25 -18.15)"  >
<path style="stroke: none; stroke-width: 1; stroke-dasharray: none; stroke-linecap: butt; stroke-dashoffset: 0; stroke-linejoin: miter; stroke-miterlimit: 4; fill: rgb(255,255,255); fill-rule: nonzero; opacity: 1;" vector-effect="non-scaling-stroke"  transform=" translate(-1360.29, -1656.15)" d="M 1515 2551 C 1471 2535 1413 2514 1385 2503 C 1351 2490 1325 2486 1305 2491 C 1256 2502 1160 2501 1137 2488 C 1125 2482 1090 2456 1060 2430 C 1007 2384 1003 2382 929 2378 C 823 2371 776 2340 761 2267 C 756 2241 746 2235 685 2216 C 567 2178 544 2160 526 2095 C 523 2084 527 2050 535 2020 C 543 1990 548 1965 547 1964 C 546 1964 511 1940 469 1912 C 416 1877 388 1850 376 1825 C 343 1756 331 1777 686 1254 C 843 1023 848 1012 843 973 C 833 900 869 852 952 826 C 961 823 978 803 990 780 C 1009 743 1014 740 1051 740 C 1090 740 1091 740 1076 762 C 1046 805 1050 805 1190 778 L 1245 767 L 1205 755 C 1179 747 1173 742 1187 741 C 1217 740 1439 778 1456 788 C 1465 793 1370 813 1208 839 C 1063 862 935 888 923 896 C 905 907 900 920 900 954 C 900 978 929 1175 964 1391 C 1018 1719 1081 2127 1106 2305 C 1119 2396 1130 2421 1163 2435 C 1192 2447 1218 2444 1410 2409 C 1528 2387 1769 2340 1945 2305 C 2211 2251 2268 2237 2283 2219 C 2292 2207 2300 2192 2300 2185 C 2300 2160 2117 1194 2103 1147 C 2099 1131 2101 1130 2119 1139 C 2131 1146 2147 1161 2155 1173 C 2169 1195 2360 2170 2360 2223 C 2360 2260 2335 2306 2307 2322 C 2295 2329 2236 2341 2175 2350 C 2066 2365 2066 2365 2060 2395 C 2051 2437 2032 2465 1997 2485 C 1967 2503 1951 2503 1780 2484 C 1727 2478 1724 2479 1708 2508 C 1670 2577 1619 2589 1515 2551 z M 1646 2495 C 1662 2483 1663 2479 1650 2471 C 1630 2458 1497 2446 1469 2455 C 1448 2462 1453 2466 1510 2486 C 1588 2513 1620 2515 1646 2495 z M 1978 2424 C 1990 2416 2000 2400 2000 2388 C 2000 2369 1996 2368 1933 2374 C 1828 2385 1709 2402 1713 2406 C 1718 2411 1893 2437 1930 2439 C 1944 2440 1966 2433 1978 2424 z M 1046 2273 C 1033 2182 1028 2160 1019 2160 C 1014 2160 1010 2170 1010 2183 C 1010 2212 992 2230 964 2230 C 934 2230 916 2205 923 2171 C 928 2148 925 2141 909 2137 C 893 2133 889 2125 892 2098 C 895 2067 897 2065 933 2065 C 969 2065 971 2063 966 2039 C 962 2016 964 2013 986 2018 C 999 2020 1010 2018 1010 2011 C 1010 2005 992 1880 969 1733 C 932 1492 920 1426 920 1472 C 920 1480 898 1652 870 1855 C 843 2058 820 2235 820 2250 C 820 2301 854 2315 989 2318 L 1052 2320 L 1046 2273 z M 2253 2293 C 2246 2291 2234 2291 2228 2293 C 2221 2296 2226 2298 2240 2298 C 2254 2298 2259 2296 2253 2293 z M 778 2103 C 784 2066 787 2034 785 2032 C 783 2030 768 2037 751 2049 C 718 2073 717 2072 700 2012 C 694 1988 687 1963 684 1956 C 680 1945 778 1862 784 1872 C 785 1874 790 1886 796 1898 C 803 1917 814 1858 843 1638 C 891 1284 892 1268 882 1253 C 875 1241 597 1991 584 2058 C 576 2098 600 2121 671 2146 C 767 2179 765 2180 778 2103 z M 1015 2060 C 1018 2055 1018 2045 1014 2039 C 1008 2028 991 2045 990 2063 C 990 2073 1008 2072 1015 2060 z M 596 1833 L 619 1772 L 589 1784 C 561 1794 556 1792 539 1771 C 529 1758 520 1742 520 1735 C 520 1709 557 1678 610 1661 L 665 1643 L 752 1407 C 799 1277 841 1156 845 1138 C 850 1116 778 1216 636 1428 C 517 1606 420 1759 420 1769 C 420 1778 426 1794 433 1803 C 450 1826 553 1899 564 1896 C 569 1895 584 1866 596 1833 z" stroke-linecap="round" />
</g>
		<g transform="matrix(0.13 0 0 -0.13 -31.91 -90.73)"  >
<path style="stroke: none; stroke-width: 1; stroke-dasharray: none; stroke-linecap: butt; stroke-dashoffset: 0; stroke-linejoin: miter; stroke-miterlimit: 4; fill: rgb(255,255,255); fill-rule: nonzero; opacity: 1;" vector-effect="non-scaling-stroke"  transform=" translate(-1235.32, -2200.48)" d="M 1210 2239 C 1185 2176 1159 2125 1148 2119 C 1120 2104 1127 2083 1161 2076 C 1219 2065 1223 2067 1216 2106 C 1209 2141 1209 2141 1242 2138 C 1276 2135 1298 2100 1266 2100 C 1257 2100 1250 2092 1250 2080 C 1250 2069 1256 2060 1264 2060 C 1271 2060 1292 2057 1309 2054 C 1336 2048 1340 2050 1340 2068 C 1340 2079 1335 2090 1330 2092 C 1324 2094 1316 2147 1311 2212 C 1302 2338 1298 2350 1271 2350 C 1258 2350 1242 2323 1210 2239 z M 1270 2225 C 1270 2187 1267 2180 1250 2180 C 1232 2180 1231 2181 1248 2225 C 1257 2250 1266 2270 1267 2270 C 1269 2270 1270 2250 1270 2225 z" stroke-linecap="round" />
</g>
		<g transform="matrix(0.13 0 0 -0.13 -36.74 -56.66)"  >
<path style="stroke: none; stroke-width: 1; stroke-dasharray: none; stroke-linecap: butt; stroke-dashoffset: 0; stroke-linejoin: miter; stroke-miterlimit: 4; fill: rgb(255,255,255); fill-rule: nonzero; opacity: 1;" vector-effect="non-scaling-stroke"  transform=" translate(-1199.14, -1945)" d="M 1171 1985 C 1149 1961 1130 1934 1130 1926 C 1130 1906 1157 1887 1176 1894 C 1188 1898 1190 1895 1185 1880 C 1180 1866 1183 1860 1194 1860 C 1203 1860 1210 1866 1210 1873 C 1210 1880 1222 1886 1238 1885 C 1259 1885 1266 1890 1268 1909 C 1272 1933 1233 2030 1220 2030 C 1216 2030 1194 2010 1171 1985 z" stroke-linecap="round" />
</g>
		<g transform="matrix(0.13 0 0 -0.13 15.36 -6.44)"  >
<path style="stroke: none; stroke-width: 1; stroke-dasharray: none; stroke-linecap: butt; stroke-dashoffset: 0; stroke-linejoin: miter; stroke-miterlimit: 4; fill: rgb(255,255,255); fill-rule: nonzero; opacity: 1;" vector-effect="non-scaling-stroke"  transform=" translate(-1589.86, -1568.33)" d="M 1629 1924 C 1605 1899 1528 1834 1459 1780 C 1321 1672 1275 1616 1264 1544 C 1244 1406 1378 1309 1502 1372 L 1548 1396 L 1538 1371 C 1523 1330 1484 1267 1461 1246 C 1426 1214 1435 1203 1508 1191 C 1545 1184 1590 1177 1609 1173 C 1641 1168 1643 1169 1637 1191 C 1634 1204 1625 1233 1616 1255 C 1608 1277 1601 1317 1600 1343 L 1600 1392 L 1626 1360 C 1662 1318 1700 1300 1756 1300 C 1838 1300 1901 1358 1916 1447 C 1925 1508 1899 1583 1830 1691 C 1797 1742 1749 1825 1725 1874 C 1700 1923 1679 1965 1677 1966 C 1675 1968 1654 1949 1629 1924 z" stroke-linecap="round" />
</g>
		<g transform="matrix(0.13 0 0 -0.13 19.7 46.16)"  >
<path style="stroke: none; stroke-width: 1; stroke-dasharray: none; stroke-linecap: butt; stroke-dashoffset: 0; stroke-linejoin: miter; stroke-miterlimit: 4; fill: rgb(255,255,255); fill-rule: nonzero; opacity: 1;" vector-effect="non-scaling-stroke"  transform=" translate(-1622.42, -1173.86)" d="M 2498 1663 C 2506 1506 2413 1321 2235 1145 C 2124 1034 1988 942 1809 856 C 1567 740 1393 692 1174 683 C 971 675 841 708 745 791 L 706 825 L 726 792 C 767 721 844 668 955 633 C 1051 604 1291 608 1435 642 C 1909 753 2373 1086 2507 1412 C 2541 1495 2549 1607 2525 1679 C 2516 1707 2505 1732 2502 1734 C 2498 1736 2496 1704 2498 1663 z" stroke-linecap="round" />
</g>
		<g transform="matrix(0.13 0 0 -0.13 33.34 77.99)"  >
<path style="stroke: none; stroke-width: 1; stroke-dasharray: none; stroke-linecap: butt; stroke-dashoffset: 0; stroke-linejoin: miter; stroke-miterlimit: 4; fill: rgb(255,255,255); fill-rule: nonzero; opacity: 1;" vector-effect="non-scaling-stroke"  transform=" translate(-1724.73, -935.12)" d="M 2560 1363 C 2508 1241 2360 1068 2200 938 C 1933 720 1590 573 1271 539 C 1145 525 1018 536 909 569 C 837 591 846 578 933 534 C 1105 445 1391 446 1656 535 C 1699 550 1803 595 1885 635 C 2230 805 2503 1078 2575 1323 C 2599 1407 2590 1431 2560 1363 z" stroke-linecap="round" />
</g>
</g>
</g>
</svg>