<?xml version="1.0" standalone="no"?>
<!DOCTYPE svg PUBLIC "-//W3C//DTD SVG 20010904//EN"
 "http://www.w3.org/TR/2001/REC-SVG-20010904/DTD/svg10.dtd">
<svg version="1.0" xmlns="http://www.w3.org/2000/svg"
 width="300.000000pt" height="300.000000pt" viewBox="0 0 300.000000 300.000000"
 preserveAspectRatio="xMidYMid meet">
<metadata>
Created by potrace 1.10, written by Peter Selinger 2001-2011
</metadata>
<g transform="translate(0.000000,300.000000) scale(0.100000,-0.100000)"
fill="#000000" stroke="none">
<path d="M1515 2551 c-44 -16 -102 -37 -130 -48 -34 -13 -60 -17 -80 -12 -49
11 -145 10 -168 -3 -12 -6 -47 -32 -77 -58 -53 -46 -57 -48 -131 -52 -106 -7
-153 -38 -168 -111 -5 -26 -15 -32 -76 -51 -118 -38 -141 -56 -159 -121 -3
-11 1 -45 9 -75 8 -30 13 -55 12 -56 -1 0 -36 -24 -78 -52 -53 -35 -81 -62
-93 -87 -33 -69 -45 -48 310 -571 157 -231 162 -242 157 -281 -10 -73 26 -121
109 -147 9 -3 26 -23 38 -46 19 -37 24 -40 61 -40 39 0 40 0 25 22 -30 43 -26
43 114 16 l55 -11 -40 -12 c-26 -8 -32 -13 -18 -14 30 -1 252 37 269 47 9 5
-86 25 -248 51 -145 23 -273 49 -285 57 -18 11 -23 24 -23 58 0 24 29 221 64
437 54 328 117 736 142 914 13 91 24 116 57 130 29 12 55 9 247 -26 118 -22
359 -69 535 -104 266 -54 323 -68 338 -86 9 -12 17 -27 17 -34 0 -25 -183
-991 -197 -1038 -4 -16 -2 -17 16 -8 12 7 28 22 36 34 14 22 205 997 205 1050
0 37 -25 83 -53 99 -12 7 -71 19 -132 28 -109 15 -109 15 -115 45 -9 42 -28
70 -63 90 -30 18 -46 18 -217 -1 -53 -6 -56 -5 -72 24 -38 69 -89 81 -193 43z
m131 -56 c16 -12 17 -16 4 -24 -20 -13 -153 -25 -181 -16 -21 7 -16 11 41 31
78 27 110 29 136 9z m332 -71 c12 -8 22 -24 22 -36 0 -19 -4 -20 -67 -14 -105
11 -224 28 -220 32 5 5 180 31 217 33 14 1 36 -6 48 -15z m-932 -151 c-13 -91
-18 -113 -27 -113 -5 0 -9 10 -9 23 0 29 -18 47 -46 47 -30 0 -48 -25 -41 -59
5 -23 2 -30 -14 -34 -16 -4 -20 -12 -17 -39 3 -31 5 -33 41 -33 36 0 38 -2 33
-26 -4 -23 -2 -26 20 -21 13 2 24 0 24 -7 0 -6 -18 -131 -41 -278 -37 -241
-49 -307 -49 -261 0 8 -22 180 -50 383 -27 203 -50 380 -50 395 0 51 34 65
169 68 l63 2 -6 -47z m1207 20 c-7 -2 -19 -2 -25 0 -7 3 -2 5 12 5 14 0 19 -2
13 -5z m-1475 -190 c6 -37 9 -69 7 -71 -2 -2 -17 5 -34 17 -33 24 -34 23 -51
-37 -6 -24 -13 -49 -16 -56 -4 -11 94 -94 100 -84 1 2 6 14 12 26 7 19 18 -40
47 -260 48 -354 49 -370 39 -385 -7 -12 -285 738 -298 805 -8 40 16 63 87 88
96 33 94 34 107 -43z m237 -43 c3 -5 3 -15 -1 -21 -6 -11 -23 6 -24 24 0 10
18 9 25 -3z m-419 -227 l23 -61 -30 12 c-28 10 -33 8 -50 -13 -10 -13 -19 -29
-19 -36 0 -26 37 -57 90 -74 l55 -18 87 -236 c47 -130 89 -251 93 -269 5 -22
-67 78 -209 290 -119 178 -216 331 -216 341 0 9 6 25 13 34 17 23 120 96 131
93 5 -1 20 -30 32 -63z"/>
<path d="M1210 2239 c-25 -63 -51 -114 -62 -120 -28 -15 -21 -36 13 -43 58
-11 62 -9 55 30 -7 35 -7 35 26 32 34 -3 56 -38 24 -38 -9 0 -16 -8 -16 -20 0
-11 6 -20 14 -20 7 0 28 -3 45 -6 27 -6 31 -4 31 14 0 11 -5 22 -10 24 -6 2
-14 55 -19 120 -9 126 -13 138 -40 138 -13 0 -29 -27 -61 -111z m60 -14 c0
-38 -3 -45 -20 -45 -18 0 -19 1 -2 45 9 25 18 45 19 45 2 0 3 -20 3 -45z"/>
<path d="M1171 1985 c-22 -24 -41 -51 -41 -59 0 -20 27 -39 46 -32 12 4 14 1
9 -14 -5 -14 -2 -20 9 -20 9 0 16 6 16 13 0 7 12 13 28 12 21 0 28 5 30 24 4
24 -35 121 -48 121 -4 0 -26 -20 -49 -45z"/>
<path d="M1629 1924 c-24 -25 -101 -90 -170 -144 -138 -108 -184 -164 -195
-236 -20 -138 114 -235 238 -172 l46 24 -10 -25 c-15 -41 -54 -104 -77 -125
-35 -32 -26 -43 47 -55 37 -7 82 -14 101 -18 32 -5 34 -4 28 18 -3 13 -12 42
-21 64 -8 22 -15 62 -16 88 l0 49 26 -32 c36 -42 74 -60 130 -60 82 0 145 58
160 147 9 61 -17 136 -86 244 -33 51 -81 134 -105 183 -25 49 -46 91 -48 92
-2 2 -23 -17 -48 -42z"/>
<path d="M2498 1663 c8 -157 -85 -342 -263 -518 -111 -111 -247 -203 -426
-289 -242 -116 -416 -164 -635 -173 -203 -8 -333 25 -429 108 l-39 34 20 -33
c41 -71 118 -124 229 -159 96 -29 336 -25 480 9 474 111 938 444 1072 770 34
83 42 195 18 267 -9 28 -20 53 -23 55 -4 2 -6 -30 -4 -71z"/>
<path d="M2560 1363 c-52 -122 -200 -295 -360 -425 -267 -218 -610 -365 -929
-399 -126 -14 -253 -3 -362 30 -72 22 -63 9 24 -35 172 -89 458 -88 723 1 43
15 147 60 229 100 345 170 618 443 690 688 24 84 15 108 -15 40z"/>
</g>
</svg>
