<?xml version="1.0" encoding="UTF-8" standalone="no" ?>
<!DOCTYPE svg PUBLIC "-//W3C//DTD SVG 1.1//EN" "http://www.w3.org/Graphics/SVG/1.1/DTD/svg11.dtd">
<svg xmlns="http://www.w3.org/2000/svg" xmlns:xlink="http://www.w3.org/1999/xlink" version="1.1" width="1080" height="1080" viewBox="0 0 1080 1080" xml:space="preserve">
<desc>Created with Fabric.js 5.2.4</desc>
<defs>
</defs>
<rect x="0" y="0" width="100%" height="100%" fill="transparent"></rect>
<g transform="matrix(1 0 0 1 540 540)" id="f9c1c11a-c089-4ed4-830c-e3fffaa22a8a"  >
</g>
<g transform="matrix(1 0 0 1 540 540)" id="2c151968-90e3-4090-83e9-95905b39475d"  >
<rect style="stroke: none; stroke-width: 1; stroke-dasharray: none; stroke-linecap: butt; stroke-dashoffset: 0; stroke-linejoin: miter; stroke-miterlimit: 4; fill: rgb(255,255,255); fill-rule: nonzero; opacity: 1; visibility: hidden;" vector-effect="non-scaling-stroke"  x="-540" y="-540" rx="0" ry="0" width="1080" height="1080" />
</g>
<g transform="matrix(0.13 0 0 -0.13 563.61 540)"  >
<path style="stroke: rgb(0,0,0); stroke-width: 0; stroke-dasharray: none; stroke-linecap: butt; stroke-dashoffset: 0; stroke-linejoin: miter; stroke-miterlimit: 4; fill: rgb(255,255,255); fill-rule: nonzero; opacity: 1;" vector-effect="non-scaling-stroke"  transform=" translate(-3909.11, -4176.38)" d="M 320 5912 L 320 4390 L 1288 4388 L 2255 4385 L 2258 3207 L 2260 2029 L 1926 2032 C 1742 2034 1588 2039 1584 2043 C 1579 2047 1574 2454 1572 2946 L 1568 3840 L 943 3840 L 318 3840 L 323 2648 C 326 1858 332 1436 339 1400 C 345 1370 368 1307 391 1261 C 451 1140 542 1050 670 988 C 722 962 792 936 824 931 C 908 916 2930 916 3019 931 C 3056 937 3123 960 3170 982 C 3316 1052 3446 1204 3503 1373 C 3524 1434 3524 1447 3530 2910 L 3535 4385 L 4380 4391 C 4911 4395 5258 4401 5315 4409 C 5551 4438 5826 4512 6000 4593 C 6169 4671 6184 4675 6174 4633 C 6161 4582 6083 4436 6020 4347 C 5906 4189 5748 4059 5559 3972 C 5380 3889 5337 3883 4885 3875 C 4693 3872 4435 3867 4313 3864 L 4090 3858 L 4090 3234 L 4090 2610 L 4553 2610 C 5126 2610 5364 2621 5537 2655 C 6078 2763 6557 3042 6920 3461 C 7397 4011 7598 4772 7455 5486 C 7396 5780 7261 6105 7096 6350 C 6870 6686 6561 6965 6209 7154 C 5921 7307 5634 7392 5345 7410 C 5244 7416 4188 7422 2748 7427 L 320 7433 L 320 5912 z M 4975 6160 L 5295 6151 L 5371 6121 C 5534 6058 5749 5935 5750 5905 C 5750 5891 5611 5799 5534 5761 C 5447 5718 5383 5694 5281 5665 L 5191 5640 L 3387 5640 L 1583 5640 L 1576 5701 C 1573 5735 1570 5855 1570 5966 L 1570 6170 L 3113 6170 C 3961 6169 4799 6165 4975 6160 z" stroke-linecap="round" />
</g>
</svg>